<?xml version="1.0" encoding="iso-8859-1"?>
<!-- Generator: Adobe Illustrator 19.0.0, SVG Export Plug-In . SVG Version: 6.00 Build 0)  -->
<svg version="1.1" id="Capa_1" xmlns="http://www.w3.org/2000/svg" xmlns:xlink="http://www.w3.org/1999/xlink" x="0px" y="0px"
	 viewBox="0 0 512.001 512.001" style="enable-background:new 0 0 512.001 512.001;" xml:space="preserve">
<path style="fill:#959CB5;" d="M307.485,65.016c-3.722,0-7.079-2.571-7.929-6.357l-8.024-36.04
	c-0.833-3.746-4.095-6.365-7.929-6.365h-55.206c-3.833,0-7.095,2.619-7.937,6.365l-8.016,36.04
	c-0.984,4.381-5.317,7.119-9.706,6.167c-4.381-0.976-7.135-5.325-6.167-9.706l8.024-36.04C207.104,7.849,216.89,0,228.398,0h55.206
	c11.508,0,21.294,7.849,23.794,19.079l8.032,36.04c0.968,4.381-1.786,8.73-6.167,9.706
	C308.668,64.952,308.072,65.016,307.485,65.016z"/>
<path style="fill:#AFB9D2;" d="M425.279,62.239c-4.13-8.26-12.572-13.477-21.807-13.477H108.53c-9.235,0-17.677,5.217-21.807,13.477
	L77.207,81.27h357.587L425.279,62.239z"/>
<path style="fill:#959CB5;" d="M206.054,48.762H108.53c-9.235,0-17.677,5.217-21.807,13.477L77.207,81.27h97.524l9.515-19.031
	C188.377,53.979,196.818,48.762,206.054,48.762z"/>
<path style="fill:#AFB9D2;" d="M85.334,81.27l23.513,415.395c0.487,8.606,7.608,15.335,16.228,15.335h261.851
	c8.62,0,15.741-6.729,16.228-15.335L426.668,81.27H85.334z"/>
<path style="fill:#959CB5;" d="M426.668,81.27H85.334l23.513,415.395c0.487,8.606,7.608,15.336,16.228,15.336h244.703
	c4.489,0,8.127-3.639,8.127-8.127c0-4.489-3.638-8.127-8.127-8.127h-170.32c-13.26,0-24.089-10.598-24.375-23.855l-7.36-341.333
	c-0.295-13.668,10.704-24.907,24.375-24.907h233.189L426.668,81.27z"/>
<path style="fill:#7F8499;" d="M149.033,481.524c-5.405,0-9.905-4.262-10.143-9.714l-14.944-341.333
	c-0.246-5.603,4.103-10.349,9.706-10.595c5.635-0.111,10.349,4.103,10.595,9.706l14.944,341.333
	c0.246,5.603-4.103,10.349-9.706,10.595C149.334,481.524,149.184,481.524,149.033,481.524z"/>
<g>
	<path style="fill:#959CB5;" d="M362.969,481.524c-0.151,0-0.302,0-0.452-0.008c-5.603-0.246-9.952-4.992-9.706-10.595
		l14.944-341.333c0.246-5.603,5.143-9.825,10.595-9.706c5.603,0.246,9.952,4.992,9.706,10.595L373.112,471.81
		C372.874,477.262,368.374,481.524,362.969,481.524z"/>
	<path style="fill:#959CB5;" d="M256.001,481.524c-5.611,0-10.159-4.548-10.159-10.159V130.032c0-5.611,4.548-10.159,10.159-10.159
		s10.159,4.548,10.159,10.159v341.333C266.16,476.976,261.612,481.524,256.001,481.524z"/>
</g>
<path style="fill:#C7CFE2;" d="M442.922,89.397H69.08c-4.492,0-8.127-3.635-8.127-8.127s3.635-8.127,8.127-8.127h373.841
	c4.492,0,8.127,3.635,8.127,8.127C451.049,85.762,447.414,89.397,442.922,89.397z"/>
<g>
	<path style="fill:#959CB5;" d="M199.104,481.524c-5.492,0-10.016-4.389-10.151-9.921l-8.127-341.333
		c-0.127-5.603,4.31-10.262,9.921-10.397c0.079,0,0.159,0,0.246,0c5.492,0,10.016,4.389,10.151,9.921l8.127,341.333
		c0.127,5.603-4.31,10.262-9.921,10.397C199.271,481.524,199.191,481.524,199.104,481.524z"/>
	<path style="fill:#959CB5;" d="M313.057,481.524c-0.087,0-0.167,0-0.246,0c-5.611-0.135-10.048-4.786-9.921-10.397l7.968-341.333
		c0.135-5.619,5.079-9.921,10.397-9.921c5.611,0.135,10.048,4.786,9.921,10.397l-7.968,341.333
		C323.072,477.127,318.557,481.524,313.057,481.524z"/>
</g>
<path style="fill:#AFB9D2;" d="M166.604,81.27c0-4.492,3.635-8.127,8.127-8.127H69.08c-4.492,0-8.127,3.635-8.127,8.127
	s3.635,8.127,8.127,8.127h105.651C170.239,89.397,166.604,85.762,166.604,81.27z"/>
<g>
</g>
<g>
</g>
<g>
</g>
<g>
</g>
<g>
</g>
<g>
</g>
<g>
</g>
<g>
</g>
<g>
</g>
<g>
</g>
<g>
</g>
<g>
</g>
<g>
</g>
<g>
</g>
<g>
</g>
</svg>
